<svg width="154" height="112" viewBox="0 0 154 112" fill="none" xmlns="http://www.w3.org/2000/svg">
<rect x="0.716309" y="0.599976" width="152.665" height="97.5" rx="48.75" fill="#1A5414"/>
<path d="M37.2278 110.741V104.834L44.8684 103.522V49.475H29.3997L28.0403 58.9438H21.1028V42.4906H77.8215V58.9438H70.9778L69.5715 49.475H54.1028V103.522L61.7434 104.834V110.741H37.2278ZM110.165 111.725C106.009 111.725 102.009 111.116 98.1653 109.897C94.3215 108.678 90.6497 106.803 87.1497 104.272V89.6938H94.3215L95.8684 100.428C97.8997 101.678 100.103 102.647 102.478 103.334C104.853 104.022 107.415 104.366 110.165 104.366C114.822 104.366 118.431 103.334 120.993 101.272C123.556 99.1781 124.837 96.4438 124.837 93.0688C124.837 89.9438 123.681 87.35 121.368 85.2875C119.056 83.225 114.931 81.5219 108.993 80.1781C101.931 78.5531 96.5403 76.0844 92.8215 72.7719C89.1028 69.4281 87.2434 65.225 87.2434 60.1625C87.2434 56.6 88.1809 53.4125 90.0559 50.6C91.9622 47.7875 94.6028 45.5688 97.9778 43.9438C101.353 42.3188 105.29 41.5063 109.79 41.5063C114.572 41.5063 118.79 42.2406 122.447 43.7094C126.134 45.1469 129.165 46.8969 131.54 48.9594V62.6H124.368L122.822 52.85C121.415 51.725 119.665 50.7875 117.572 50.0375C115.478 49.2875 112.884 48.9125 109.79 48.9125C105.822 48.9125 102.603 49.9281 100.134 51.9594C97.6965 53.9906 96.4778 56.6781 96.4778 60.0219C96.4778 62.9594 97.6497 65.3656 99.9934 67.2406C102.337 69.0844 106.4 70.725 112.181 72.1625C119.368 73.9438 124.806 76.5844 128.493 80.0844C132.212 83.5531 134.072 87.85 134.072 92.975C134.072 96.6313 133.087 99.8813 131.118 102.725C129.15 105.538 126.368 107.741 122.775 109.334C119.212 110.928 115.009 111.725 110.165 111.725Z" fill="#D1DED0"/>
</svg>
